<svg xmlns="http://www.w3.org/2000/svg" xmlns:xlink="http://www.w3.org/1999/xlink" width="500" zoomAndPan="magnify" viewBox="0 0 375 374.999991" height="500" preserveAspectRatio="xMidYMid meet" version="1.0"><defs><clipPath id="a732608704"><path d="M 119 118 L 261.683594 118 L 261.683594 260 L 119 260 Z M 119 118 " clip-rule="nonzero"/></clipPath></defs><g clip-path="url(#a732608704)"><path fill="#000000" d="M 261.53125 185.503906 C 261.574219 163.875 249.285156 143.328125 231.511719 131.425781 C 204.523438 112.777344 158.882812 112.515625 140.726562 143.402344 C 140.542969 143.453125 140.347656 143.523438 140.140625 143.613281 C 140.167969 143.855469 140.160156 144.082031 140.191406 144.261719 C 140.015625 144.542969 139.839844 144.832031 139.664062 145.125 C 139.90625 144.96875 140.148438 144.828125 140.386719 144.6875 C 141.121094 145.730469 141.425781 147.359375 142.84375 147.660156 C 144.496094 148.203125 145.902344 149.292969 147.464844 150.035156 C 150.816406 151.574219 154.023438 153.367188 157.289062 155.078125 C 155.050781 161.796875 154.242188 168.878906 153.28125 175.863281 C 152.800781 179.199219 152.214844 182.664062 152.054688 186.03125 C 147.371094 186.195312 142.6875 185.78125 137.996094 185.976562 C 133.019531 186.007812 127.777344 185.03125 123.09375 187.203125 C 123.71875 177.132812 126.929688 167.441406 131.199219 158.367188 C 133.21875 153.421875 136.648438 149.019531 138.367188 143.980469 C 135.941406 145.433594 134.378906 147.5 132.511719 149.527344 C 128.421875 153.539062 126.351562 158.996094 124.390625 164.335938 C 113.265625 193.335938 122.234375 228.085938 147.589844 246.539062 C 163.1875 258.632812 184.839844 262.503906 203.90625 258.097656 C 219.472656 253.671875 235.042969 246.355469 245.816406 233.917969 C 256.679688 220.40625 261.253906 202.605469 261.53125 185.503906 Z M 246.746094 151.449219 C 253.636719 161.433594 257.746094 173.53125 257.429688 185.714844 C 252.992188 183.917969 248.316406 185.070312 243.691406 185.109375 C 238.515625 185.179688 233.34375 185.101562 228.179688 185.5625 C 227.675781 175.632812 226.414062 165.601562 222.945312 156.226562 C 228.726562 154.132812 234.238281 151.210938 239.160156 147.53125 C 240.15625 146.683594 240.289062 145.242188 240.703125 144.003906 C 242.90625 146.320312 244.929688 148.816406 246.746094 151.449219 Z M 197.539062 253.53125 C 196.492188 254.082031 195.804688 255.164062 195.007812 256.027344 C 194.808594 256.039062 194.199219 256.082031 194.007812 256.097656 C 195.421875 251.679688 193.972656 247.210938 193.757812 242.714844 C 193.507812 235.460938 192.75 228.242188 192.429688 220.996094 C 195.761719 221.171875 199.019531 222.027344 202.230469 222.878906 C 207.667969 224.21875 213.203125 225.261719 218.414062 227.347656 C 214.625 238.046875 207.566406 247.960938 197.539062 253.53125 Z M 156.191406 190.261719 L 156.191406 189.085938 C 167.058594 189.125 177.894531 188.117188 188.738281 189.230469 C 188.753906 198.253906 188.214844 207.273438 188.59375 216.296875 C 179.390625 215.695312 169.980469 216.890625 161.414062 220.382812 C 160.019531 216.972656 158.851562 213.28125 158.273438 209.628906 C 157.214844 203.222656 156.160156 196.777344 156.191406 190.261719 Z M 163.140625 223.292969 C 167.082031 222.164062 171.148438 221.046875 175.195312 220.359375 C 179.6875 219.40625 184.242188 220.109375 188.742188 220.578125 C 188.925781 227.203125 189.089844 233.972656 189.402344 240.609375 C 189.609375 244.40625 189.796875 248.574219 190.085938 252.34375 C 190.238281 253.773438 191.257812 254.875 191.988281 256.105469 C 188.261719 251.933594 183.175781 249.5 179.128906 245.703125 C 172.574219 239.246094 166.652344 231.800781 162.738281 223.421875 C 162.875 223.378906 163.003906 223.335938 163.140625 223.292969 Z M 221.046875 217.957031 C 220.660156 219.875 220.179688 221.765625 219.628906 223.636719 C 216.996094 222.863281 214.214844 222.015625 211.574219 221.308594 C 205.144531 219.730469 198.964844 217.230469 192.308594 216.699219 C 192.242188 207.582031 193.042969 198.492188 192.984375 189.363281 C 203.335938 189.308594 213.667969 189.820312 224.03125 189.417969 C 224.238281 199.035156 223.167969 208.605469 221.046875 217.957031 Z M 192.992188 180.070312 C 193.007812 173.730469 193.011719 167.390625 192.644531 161.058594 C 201.722656 161.027344 210.851562 160.394531 219.515625 157.386719 C 222.679688 166.496094 224.519531 176.039062 224.046875 185.707031 C 213.679688 186.210938 203.371094 184.976562 193.003906 185.09375 C 193.003906 183.421875 192.996094 181.746094 192.992188 180.070312 Z M 182.058594 126.339844 C 183.851562 125.238281 185.535156 124.023438 187.265625 122.796875 C 187.617188 122.796875 187.972656 122.804688 188.332031 122.8125 C 187.242188 125.261719 187.71875 126.320312 188.148438 128.773438 C 188.40625 131.652344 188.589844 134.542969 188.832031 137.425781 C 188.933594 143.84375 188.605469 150.269531 189.074219 156.703125 C 179.847656 156.546875 170.566406 155.671875 161.652344 153.164062 C 165.097656 142.339844 172.460938 132.421875 182.058594 126.339844 Z M 192.398438 156.066406 C 191.785156 149.796875 192.300781 143.523438 192.046875 137.242188 C 191.941406 132.589844 192.714844 127.765625 190.925781 123.332031 C 191.808594 124.042969 192.4375 125.027344 193.335938 125.710938 C 194.375 126.417969 195.753906 126.625 196.800781 127.402344 C 199.636719 129.179688 202.3125 131.238281 204.851562 133.46875 C 208.128906 136.226562 210.261719 139.9375 212.769531 143.339844 C 215.046875 146.578125 216.972656 150.101562 218.300781 153.835938 C 210.042969 156.984375 201.128906 156.664062 192.433594 156.789062 C 192.421875 156.546875 192.410156 156.308594 192.398438 156.066406 Z M 208.625 125.429688 C 220.179688 128.332031 230.933594 134.289062 239.40625 142.691406 C 235.875 143.40625 233.710938 146.289062 230.695312 148.003906 C 227.773438 149.765625 224.550781 151.027344 221.492188 152.539062 C 216.488281 140.933594 208.382812 130.40625 197.785156 123.417969 C 201.449219 123.84375 205.074219 124.5 208.625 125.429688 Z M 158.15625 151.742188 C 155.226562 150.199219 152.117188 148.941406 149.402344 147.015625 C 147.191406 145.421875 144.898438 143.816406 142.148438 143.332031 C 153.03125 134.472656 165.175781 125.636719 179.402344 123.445312 C 174.363281 126.972656 170.667969 131.90625 166.625 136.457031 C 162.851562 140.945312 160.621094 146.503906 158.449219 151.886719 C 158.347656 151.835938 158.253906 151.789062 158.15625 151.742188 Z M 156.621094 178.140625 C 157.347656 170.75 158.6875 163.394531 160.6875 156.242188 C 165.054688 157.496094 169.429688 158.929688 173.976562 159.339844 C 179.003906 159.714844 184.0625 160.238281 189.0625 160.871094 C 189.132812 168.925781 189.929688 176.984375 188.949219 185.015625 C 178.035156 185.035156 167.121094 185.0625 156.222656 185.773438 C 156.277344 183.226562 156.40625 180.679688 156.621094 178.140625 Z M 136.53125 231.105469 C 127.476562 219.28125 122.652344 204.109375 122.992188 189.230469 C 125.917969 190.429688 126.453125 190.230469 129.441406 189.71875 C 129.441406 189.71875 138.132812 189.191406 138.132812 189.191406 C 142.738281 188.90625 147.316406 189.726562 151.9375 189.261719 C 151.765625 194.132812 152.519531 198.960938 153.125 203.777344 C 153.941406 209.980469 155.445312 216.148438 158.011719 221.863281 C 154.109375 223.332031 150.320312 225.0625 146.742188 227.214844 C 143.738281 228.960938 140.355469 230.738281 139.101562 234.210938 C 138.214844 233.261719 137.328125 232.121094 136.53125 231.105469 Z M 181.867188 255.78125 C 166.195312 254.535156 151.253906 247.375 140.558594 235.835938 C 141.59375 235.4375 142.9375 235.5 143.507812 234.394531 C 144.410156 233.089844 145.953125 232.105469 147.183594 231.125 C 150.679688 228.003906 155.195312 226.789062 159.328125 224.8125 C 165.058594 237.191406 173.78125 248.421875 185.195312 256.023438 C 184.085938 255.964844 182.976562 255.882812 181.867188 255.78125 Z M 227.683594 243.738281 C 220.507812 248.289062 212.726562 251.992188 204.535156 254.273438 C 213.183594 247.246094 218.382812 239.289062 221.828125 228.753906 C 225.296875 230.25 228.671875 232.074219 231.78125 234.230469 C 233.554688 235.613281 234.710938 236.71875 237.105469 236.746094 C 234.179688 239.308594 230.996094 241.628906 227.683594 243.738281 Z M 256.625 196.035156 C 254.660156 210.351562 249.386719 224.945312 238.84375 235.171875 C 237.625 232.039062 234.597656 230.679688 231.859375 229.125 C 229.015625 227.578125 226.152344 225.921875 223.125 224.769531 C 226.5625 213.277344 228.59375 201.421875 228.28125 189.402344 C 234.269531 189.414062 246.960938 189.335938 253.117188 189.304688 C 254.703125 189.210938 255.941406 188.148438 257.375 187.429688 C 257.253906 190.261719 256.976562 193.210938 256.625 196.035156 Z M 256.625 196.035156 " fill-opacity="1" fill-rule="nonzero"/></g><path fill="#ffffff" d="M 187.5 162.511719 C 171.367188 162.511719 159.652344 174.851562 159.652344 188.425781 C 159.652344 202 171.367188 214.339844 187.5 214.339844 C 203.632812 214.339844 215.347656 202 215.347656 188.425781 C 215.347656 174.851562 203.632812 162.511719 187.5 162.511719 Z M 122.523438 188.425781 C 122.523438 152.875 152.367188 125.386719 187.5 125.386719 C 222.632812 125.386719 252.476562 152.875 252.476562 188.425781 C 252.476562 223.980469 222.632812 251.46875 187.5 251.46875 C 152.367188 251.46875 122.523438 223.980469 122.523438 188.425781 Z M 122.523438 188.425781 " fill-opacity="1" fill-rule="evenodd"/><path fill="#ffffff" d="M 47.226562 188.425781 C 47.785156 188.941406 48.359375 189.464844 48.945312 190 C 58.6875 198.886719 72.363281 210.699219 88.144531 222.472656 C 103.980469 234.28125 121.578125 245.78125 139.179688 254.265625 C 156.976562 262.847656 173.492188 267.710938 187.5 267.710938 C 201.507812 267.710938 218.023438 262.847656 235.820312 254.265625 C 253.421875 245.78125 271.019531 234.28125 286.855469 222.472656 C 302.632812 210.699219 316.3125 198.886719 326.054688 190 C 326.640625 189.464844 327.214844 188.941406 327.773438 188.425781 C 327.214844 187.914062 326.640625 187.390625 326.054688 186.851562 C 316.3125 177.964844 302.632812 166.152344 286.855469 154.382812 C 271.019531 142.574219 253.421875 131.074219 235.820312 122.589844 C 218.023438 114.007812 201.507812 109.140625 187.5 109.140625 C 173.492188 109.140625 156.976562 114.007812 139.179688 122.589844 C 121.578125 131.074219 103.980469 142.574219 88.144531 154.382812 C 72.363281 166.152344 58.6875 177.964844 48.945312 186.851562 C 48.359375 187.390625 47.785156 187.914062 47.226562 188.425781 Z M 354.578125 188.425781 C 367.875 175.472656 367.875 175.472656 367.871094 175.46875 L 367.839844 175.4375 L 367.769531 175.363281 L 367.523438 175.113281 L 366.628906 174.210938 C 365.855469 173.4375 364.734375 172.328125 363.300781 170.925781 C 360.425781 168.125 356.273438 164.164062 351.074219 159.421875 C 340.707031 149.964844 326.070312 137.3125 309.050781 124.621094 C 292.085938 111.96875 272.402344 99.007812 251.945312 89.144531 C 231.6875 79.378906 209.375 72.011719 187.5 72.011719 C 165.625 72.011719 143.3125 79.378906 123.054688 89.144531 C 102.597656 99.007812 82.914062 111.96875 65.949219 124.621094 C 48.929688 137.3125 34.292969 149.964844 23.921875 159.421875 C 18.726562 164.164062 14.574219 168.125 11.703125 170.925781 C 10.265625 172.328125 9.144531 173.4375 8.371094 174.210938 L 7.476562 175.113281 L 7.230469 175.363281 L 7.160156 175.4375 L 7.136719 175.460938 C 7.132812 175.460938 7.121094 175.472656 20.421875 188.425781 L 7.121094 175.472656 C 0.101562 182.683594 0.101562 194.171875 7.121094 201.378906 L 20.421875 188.425781 C 7.121094 201.378906 7.121094 201.378906 7.121094 201.378906 L 7.160156 201.417969 L 7.230469 201.492188 L 7.476562 201.742188 L 8.371094 202.640625 C 9.144531 203.417969 10.265625 204.527344 11.703125 205.929688 C 14.574219 208.730469 18.726562 212.691406 23.921875 217.429688 C 34.292969 226.890625 48.929688 239.539062 65.949219 252.234375 C 82.914062 264.886719 102.597656 277.847656 123.054688 287.710938 C 143.3125 297.476562 165.625 304.839844 187.5 304.839844 C 209.375 304.839844 231.6875 297.476562 251.945312 287.710938 C 272.402344 277.847656 292.085938 264.886719 309.050781 252.234375 C 326.070312 239.539062 340.707031 226.890625 351.074219 217.429688 C 356.273438 212.691406 360.425781 208.730469 363.300781 205.929688 C 364.734375 204.527344 365.855469 203.417969 366.628906 202.640625 L 367.523438 201.742188 L 367.769531 201.492188 L 367.839844 201.417969 L 367.863281 201.394531 C 367.867188 201.390625 367.875 201.378906 354.578125 188.425781 Z M 354.578125 188.425781 L 367.875 201.378906 C 374.898438 194.171875 374.890625 182.675781 367.871094 175.46875 Z M 354.578125 188.425781 " fill-opacity="1" fill-rule="evenodd"/></svg>