<svg xmlns="http://www.w3.org/2000/svg" xmlns:xlink="http://www.w3.org/1999/xlink" width="500" zoomAndPan="magnify" viewBox="0 0 375 374.999991" height="500" preserveAspectRatio="xMidYMid meet" version="1.0"><defs><clipPath id="f67cd4b753"><path d="M 45.402344 16.855469 L 329.652344 16.855469 L 329.652344 358.105469 L 45.402344 358.105469 Z M 45.402344 16.855469 " clip-rule="nonzero"/></clipPath></defs><path fill="#ffffff" d="M 248.996094 122.65625 L 125.996094 122.65625 C 122.039062 122.65625 119.71875 128.046875 122.242188 131.664062 C 134.460938 149.753906 150.980469 162.722656 169.75 167.773438 C 176.507812 169.617188 181.21875 176.917969 180.808594 185.042969 L 178.007812 245.722656 C 177.667969 253.574219 171.183594 259.714844 163.332031 259.714844 L 115.894531 259.714844 C 114.050781 259.714844 112.414062 260.945312 111.59375 262.855469 C 107.566406 272.273438 104.496094 282.445312 102.652344 293.296875 C 102.039062 296.777344 104.292969 300.054688 107.363281 300.054688 L 267.699219 300.054688 C 270.769531 300.054688 273.023438 296.777344 272.410156 293.296875 C 270.566406 282.511719 267.492188 272.273438 263.464844 262.855469 C 262.648438 260.945312 261.007812 259.714844 259.167969 259.714844 L 211.796875 259.714844 C 203.945312 259.714844 197.53125 253.574219 197.121094 245.722656 L 194.320312 185.042969 C 193.914062 176.917969 198.621094 169.617188 205.378906 167.773438 C 224.152344 162.652344 240.667969 149.683594 252.886719 131.664062 C 255.277344 127.980469 253.023438 122.65625 248.996094 122.65625 Z M 248.996094 122.65625 " fill-opacity="1" fill-rule="nonzero"/><g clip-path="url(#f67cd4b753)"><path fill="#ffffff" d="M 295.410156 63.886719 L 323.667969 63.886719 C 326.878906 63.886719 329.402344 60.882812 329.402344 57.195312 L 329.402344 22.660156 C 329.402344 19.449219 326.808594 16.855469 323.601562 16.855469 L 51.324219 16.855469 C 48.117188 16.855469 45.523438 19.449219 45.523438 22.660156 L 45.523438 57.195312 C 45.523438 60.882812 48.117188 63.886719 51.253906 63.886719 L 79.515625 63.886719 C 81.628906 120.609375 110.777344 169.480469 152.683594 187.5 C 110.777344 205.519531 81.699219 254.390625 79.515625 311.113281 L 51.324219 311.113281 C 48.117188 311.113281 45.589844 314.117188 45.589844 317.800781 L 45.589844 352.339844 C 45.589844 355.546875 48.183594 358.140625 51.390625 358.140625 L 323.667969 358.140625 C 326.878906 358.140625 329.472656 355.546875 329.472656 352.339844 L 329.472656 317.800781 C 329.472656 314.117188 326.878906 311.113281 323.738281 311.113281 L 295.480469 311.113281 C 293.363281 254.390625 264.21875 205.519531 222.308594 187.5 C 264.148438 169.480469 293.292969 120.609375 295.410156 63.886719 Z M 210.5 177.808594 C 206.675781 179.035156 204.152344 182.925781 204.152344 187.5 C 204.152344 192.140625 206.746094 196.03125 210.5 197.191406 C 252.066406 210.296875 281.621094 256.574219 283.875 311.113281 L 91.117188 311.113281 C 93.371094 256.574219 122.925781 210.296875 164.492188 197.191406 C 168.316406 195.964844 170.84375 192.074219 170.84375 187.5 C 170.84375 182.859375 168.246094 178.96875 164.492188 177.808594 C 122.925781 164.703125 93.371094 118.421875 91.117188 63.886719 L 283.875 63.886719 C 281.621094 118.421875 252.066406 164.703125 210.5 177.808594 Z M 210.5 177.808594 " fill-opacity="1" fill-rule="nonzero"/></g></svg>