<svg xmlns="http://www.w3.org/2000/svg" xmlns:xlink="http://www.w3.org/1999/xlink" width="500" zoomAndPan="magnify" viewBox="0 0 375 374.999991" height="500" preserveAspectRatio="xMidYMid meet" version="1.0"><defs><clipPath id="8eeaef0e51"><path d="M 26.636719 26.636719 L 348.386719 26.636719 L 348.386719 348.386719 L 26.636719 348.386719 Z M 26.636719 26.636719 " clip-rule="nonzero"/></clipPath></defs><path fill="#ffffff" d="M 236.832031 221.546875 L 271.417969 221.546875 L 271.417969 236.761719 L 236.832031 236.761719 Z M 236.832031 221.546875 " fill-opacity="1" fill-rule="nonzero"/><path fill="#ffffff" d="M 262.835938 241.457031 L 262.835938 275.304688 C 262.835938 280.128906 258.882812 284.085938 254.054688 284.085938 C 249.230469 284.085938 245.277344 280.128906 245.277344 275.304688 L 245.277344 241.457031 Z M 262.835938 241.457031 " fill-opacity="1" fill-rule="nonzero"/><path fill="#ffffff" d="M 281.871094 195.808594 C 281.871094 203.921875 278.386719 211.496094 272.289062 216.789062 L 235.824219 216.789062 C 235.355469 216.386719 234.886719 215.984375 234.484375 215.515625 C 234.417969 215.449219 234.417969 215.449219 234.417969 215.449219 C 229.257812 210.289062 226.308594 203.25 226.308594 195.808594 C 226.308594 180.460938 238.773438 167.996094 254.125 167.996094 C 269.40625 167.996094 281.871094 180.460938 281.871094 195.808594 Z M 281.871094 195.808594 " fill-opacity="1" fill-rule="nonzero"/><path fill="#ffffff" d="M 215.917969 161.960938 C 215.917969 162.027344 215.851562 162.097656 215.851562 162.097656 C 213.304688 172.6875 207.808594 181.667969 200.101562 188.035156 C 199.832031 188.167969 199.628906 188.371094 199.429688 188.570312 C 196.210938 191.117188 192.660156 193.195312 188.707031 194.738281 C 183.410156 196.816406 177.445312 196.75 171.949219 194.46875 C 167.859375 192.792969 164.242188 190.648438 161.023438 187.96875 C 160.890625 187.835938 160.753906 187.765625 160.6875 187.632812 C 153.382812 181.535156 148.222656 173.019531 145.273438 162.027344 C 142.992188 153.515625 142.660156 145.808594 142.726562 141.855469 C 143.664062 141.988281 144.601562 142.121094 145.472656 142.1875 C 145.941406 142.589844 146.480469 142.859375 147.148438 142.859375 C 147.683594 142.859375 148.222656 142.726562 148.625 142.390625 C 167.726562 142.992188 184.886719 132.402344 192.324219 125.230469 C 197.820312 131.597656 204.859375 137.164062 213.4375 141.585938 C 213.503906 141.652344 213.640625 141.652344 213.707031 141.71875 C 214.914062 142.390625 216.1875 142.992188 217.460938 143.53125 C 217.796875 150.097656 217.257812 156.265625 215.917969 161.960938 Z M 215.917969 161.960938 " fill-opacity="1" fill-rule="nonzero"/><path fill="#ffffff" d="M 229.660156 150.632812 C 229.660156 155.59375 225.90625 159.75 221.144531 160.285156 C 222.285156 154.453125 222.621094 148.289062 222.085938 141.921875 C 222.019531 141.585938 221.949219 141.316406 221.816406 141.050781 C 224.765625 141.585938 227.246094 143.53125 228.652344 146.277344 C 228.652344 146.277344 228.652344 146.34375 228.71875 146.34375 L 228.71875 146.410156 C 229.324219 147.683594 229.660156 149.160156 229.660156 150.632812 Z M 229.660156 150.632812 " fill-opacity="1" fill-rule="nonzero"/><path fill="#ffffff" d="M 229.054688 139.375 C 226.507812 137.296875 223.359375 136.15625 219.941406 136.15625 C 218.195312 136.15625 216.453125 136.492188 214.777344 137.09375 C 206.265625 132.539062 199.429688 126.90625 194.335938 120.339844 C 193.867188 119.800781 193.261719 119.46875 192.527344 119.398438 C 191.789062 119.332031 191.117188 119.667969 190.648438 120.203125 C 184.683594 127.109375 167.792969 137.765625 149.761719 137.699219 C 160.285156 132.605469 170.339844 125.367188 178.183594 116.921875 C 179.054688 115.980469 179.054688 114.441406 178.046875 113.570312 C 177.109375 112.699219 175.566406 112.699219 174.695312 113.703125 C 165.3125 123.691406 152.710938 132.066406 139.976562 136.625 C 139.910156 136.625 139.777344 136.625 139.710938 136.691406 C 137.296875 136.761719 134.078125 137.164062 131.398438 139.039062 C 131.800781 118.796875 141.117188 103.113281 157.539062 95.472656 C 173.558594 87.964844 193.664062 89.976562 204.253906 100.097656 C 204.925781 100.765625 205.929688 100.96875 206.800781 100.566406 C 211.09375 98.757812 215.515625 99.359375 219.269531 102.242188 C 227.042969 108.140625 230.53125 121.8125 229.054688 139.375 Z M 229.054688 139.375 " fill-opacity="1" fill-rule="nonzero"/><path fill="#ffffff" d="M 139.976562 160.285156 C 134.816406 160.085938 130.59375 155.796875 130.59375 150.566406 C 130.59375 149.160156 130.863281 147.820312 131.464844 146.613281 C 131.464844 146.546875 131.53125 146.546875 131.53125 146.480469 C 132.066406 145.207031 132.941406 144.132812 134.011719 143.195312 C 134.949219 142.390625 136.289062 141.855469 137.964844 141.652344 C 137.898438 145.339844 138.101562 152.308594 139.976562 160.285156 Z M 139.976562 160.285156 " fill-opacity="1" fill-rule="nonzero"/><path fill="#ffffff" d="M 189.375 217.125 C 189.308594 219.269531 188.773438 221.078125 187.699219 222.488281 C 187.632812 222.554688 187.632812 222.554688 187.566406 222.621094 C 185.890625 224.832031 183.140625 226.105469 180.058594 226.105469 C 176.976562 226.105469 174.226562 224.765625 172.550781 222.621094 L 172.484375 222.554688 C 171.414062 221.078125 170.808594 219.203125 170.742188 217.058594 C 170.808594 214.914062 171.34375 213.101562 172.417969 211.695312 C 172.484375 211.628906 172.484375 211.5625 172.550781 211.5625 C 174.226562 209.417969 176.976562 208.074219 179.992188 208.074219 C 183.074219 208.074219 185.890625 209.417969 187.5 211.628906 C 188.773438 213.171875 189.308594 214.980469 189.375 217.125 Z M 189.375 217.125 " fill-opacity="1" fill-rule="nonzero"/><path fill="#ffffff" d="M 166.117188 217.191406 C 166.183594 219.335938 166.585938 221.28125 167.390625 223.089844 L 150.769531 231.402344 L 150.769531 202.914062 L 153.851562 204.457031 L 167.390625 211.226562 C 166.652344 213.035156 166.183594 214.980469 166.117188 217.191406 Z M 166.117188 217.191406 " fill-opacity="1" fill-rule="nonzero"/><path fill="#ffffff" d="M 203.316406 200.703125 L 190.113281 207.273438 C 187.566406 204.792969 183.945312 203.316406 180.125 203.316406 C 176.238281 203.316406 172.6875 204.792969 170.140625 207.273438 L 158.277344 201.375 C 159.617188 198.828125 160.488281 196.078125 161.023438 193.867188 C 163.839844 195.808594 166.921875 197.554688 170.207031 198.894531 C 173.625 200.300781 177.175781 201.039062 180.730469 201.039062 C 184.082031 201.039062 187.363281 200.433594 190.515625 199.160156 C 193.933594 197.820312 197.21875 196.078125 200.167969 194 C 200.835938 195.609375 201.910156 198.089844 203.316406 200.703125 Z M 203.316406 200.703125 " fill-opacity="1" fill-rule="nonzero"/><path fill="#ffffff" d="M 168.0625 284.085938 L 124.023438 284.085938 L 123.824219 252.984375 C 123.824219 251.710938 122.75 250.636719 121.476562 250.636719 C 120.136719 250.636719 119.132812 251.710938 119.132812 252.984375 L 119.332031 284.085938 L 93.261719 284.085938 L 93.191406 277.714844 C 93.058594 265.585938 96.8125 242.460938 102.777344 235.15625 C 103.851562 233.882812 104.921875 232.675781 106.0625 231.601562 C 106.332031 231.335938 106.53125 231.132812 106.800781 230.863281 C 112.09375 226.039062 118.730469 222.890625 125.96875 221.617188 C 133.878906 220.273438 140.582031 217.863281 146.007812 214.445312 L 146.007812 235.289062 C 146.007812 236.09375 146.480469 236.832031 147.148438 237.300781 C 147.550781 237.566406 147.953125 237.636719 148.421875 237.636719 C 148.757812 237.636719 149.160156 237.566406 149.496094 237.367188 L 159.816406 232.207031 Z M 168.0625 284.085938 " fill-opacity="1" fill-rule="nonzero"/><path fill="#ffffff" d="M 209.550781 202.914062 L 209.550781 231.402344 L 199.765625 226.507812 C 199.699219 226.507812 199.699219 226.441406 199.699219 226.441406 L 192.859375 223.023438 C 193.597656 221.28125 194.066406 219.335938 194.132812 217.125 L 194.132812 217.058594 C 194.066406 214.914062 193.664062 212.96875 192.859375 211.160156 L 207.539062 203.785156 L 207.742188 203.652344 Z M 209.550781 202.914062 " fill-opacity="1" fill-rule="nonzero"/><path fill="#ffffff" d="M 196.078125 229.992188 L 187.363281 284.015625 L 172.820312 284.015625 L 164.105469 229.992188 L 170.070312 227.042969 C 172.621094 229.523438 176.238281 231 180.058594 231 C 183.945312 231 187.5 229.523438 190.046875 227.042969 Z M 196.078125 229.992188 " fill-opacity="1" fill-rule="nonzero"/><path fill="#ffffff" d="M 243.800781 284.085938 L 192.191406 284.085938 L 200.503906 232.273438 L 210.824219 237.433594 C 211.160156 237.566406 211.496094 237.703125 211.898438 237.703125 C 212.367188 237.703125 212.769531 237.566406 213.171875 237.367188 C 213.839844 236.898438 214.308594 236.160156 214.308594 235.355469 L 214.308594 212.902344 C 215.851562 213.839844 217.59375 214.710938 219.46875 215.582031 C 223.089844 217.257812 227.179688 218.53125 231.667969 219.46875 C 231.804688 219.605469 231.9375 219.738281 232.070312 219.804688 L 232.070312 239.109375 C 232.070312 240.449219 233.144531 241.457031 234.417969 241.457031 L 240.582031 241.457031 L 240.582031 275.304688 C 240.582031 278.65625 241.789062 281.671875 243.800781 284.085938 Z M 243.800781 284.085938 " fill-opacity="1" fill-rule="nonzero"/><g clip-path="url(#8eeaef0e51)"><path fill="#ffffff" d="M 335.695312 124.894531 C 327.585938 105.726562 315.988281 88.566406 301.242188 73.753906 C 286.496094 59.007812 269.269531 47.414062 250.101562 39.304688 C 230.261719 30.925781 209.214844 26.636719 187.5 26.636719 C 165.78125 26.636719 144.734375 30.859375 124.894531 39.304688 C 105.726562 47.414062 88.566406 59.007812 73.753906 73.753906 C 58.941406 88.5 47.414062 105.726562 39.304688 124.894531 C 30.925781 144.734375 26.636719 165.78125 26.636719 187.5 C 26.636719 209.214844 30.859375 230.261719 39.304688 250.101562 C 47.414062 269.269531 59.007812 286.429688 73.753906 301.242188 C 88.5 315.988281 105.726562 327.585938 124.894531 335.695312 C 144.734375 344.074219 165.78125 348.363281 187.5 348.363281 C 209.214844 348.363281 230.261719 344.140625 250.101562 335.695312 C 269.269531 327.585938 286.429688 315.988281 301.242188 301.242188 C 315.988281 286.496094 327.585938 269.269531 335.695312 250.101562 C 344.074219 230.261719 348.363281 209.214844 348.363281 187.5 C 348.363281 165.78125 344.074219 144.734375 335.695312 124.894531 Z M 342.328125 187.5 C 342.328125 272.890625 272.824219 342.398438 187.433594 342.398438 C 102.039062 342.398438 32.535156 272.890625 32.535156 187.5 C 32.535156 102.109375 102.039062 32.601562 187.433594 32.601562 C 272.890625 32.601562 342.328125 102.109375 342.328125 187.5 Z M 342.328125 187.5 " fill-opacity="1" fill-rule="nonzero"/></g></svg>