<svg width="500" height="500" viewBox="0 0 375 375" xmlns="http://www.w3.org/2000/svg"><defs><clipPath><path d="M73 21h218v334.152H73Zm0 0"/></clipPath></defs><g clip-path="url(#a)"><path fill-rule="evenodd" d="M97.3 80.773c13.634-29.191 40.25-60.972 91.684-59.488C297 24.406 304.496 132.988 277.855 184.575c-22.55 43.663-79.921 82.374-85.015 101.44-4.113 15.41-10.367 69.016-58.211 69.079-40.55.047-63.656-31.153-60.531-66.102 2.3-25.777 19.902-47.406 30.047-33.27 11.785 16.419-25.094 29.583-6.946 58.227 8.43 13.309 19.977 21.848 37.461 21.848 35.098 0 35.992-43.867 43.086-56.79 12.473-22.722 84.856-81.183 88.035-142.694 2.5-48.258-24.93-92.551-85.746-89.028-57.441 3.332-70.347 50.13-72.426 74.664-1.73 20.39 4.954 43.086-6.968 42.656-11.559-.417-18.008-52.421-3.34-83.832m0 0"/></g><path fill-rule="evenodd" d="M207.922 179.586c8.215 3.691 22.172-18.258 26.02-38.488 4.785-25.168 1.046-47.637-19.774-63.028-38.324-28.347-85.332-5.82-92.516 37.602-7.617 46.02 35.496 41.902 22.5 73.23-3.968 9.578-16.832 20.895-21.77 29.153-7.257 12.129-4.374 28.507 6.192 34.851 25.25 15.168 54.23-19.61 57.113-60.547 2.454-34.816-43.761-48.707-40.964-74.96 2.425-22.684 22.43-36.985 45.504-31.22 23.082 5.77 36.84 38.692 24.77 65.946-5.528 12.496-15.4 23.715-7.075 27.46m0 0"/></svg>