<svg xmlns="http://www.w3.org/2000/svg" xmlns:xlink="http://www.w3.org/1999/xlink" width="500" zoomAndPan="magnify" viewBox="0 0 375 374.999991" height="500" preserveAspectRatio="xMidYMid meet" version="1.0"><defs><clipPath id="19f239ee1c"><path d="M 73 21 L 291 21 L 291 355.152344 L 73 355.152344 Z M 73 21 " clip-rule="nonzero"/></clipPath></defs><g clip-path="url(#19f239ee1c)"><path fill="#ffffff" d="M 97.300781 80.773438 C 110.933594 51.582031 137.550781 19.800781 188.984375 21.285156 C 297 24.40625 304.496094 132.988281 277.855469 184.574219 C 255.304688 228.238281 197.933594 266.949219 192.839844 286.015625 C 188.726562 301.425781 182.472656 355.03125 134.628906 355.09375 C 94.078125 355.140625 70.972656 323.941406 74.097656 288.992188 C 76.398438 263.214844 94 241.585938 104.144531 255.722656 C 115.929688 272.140625 79.050781 285.304688 97.199219 313.949219 C 105.628906 327.257812 117.175781 335.796875 134.660156 335.796875 C 169.757812 335.796875 170.652344 291.929688 177.746094 279.007812 C 190.21875 256.285156 262.601562 197.824219 265.78125 136.3125 C 268.28125 88.054688 240.851562 43.761719 180.035156 47.285156 C 122.59375 50.617188 109.6875 97.414062 107.609375 121.949219 C 105.878906 142.339844 112.5625 165.035156 100.640625 164.605469 C 89.082031 164.1875 82.632812 112.183594 97.300781 80.773438 Z M 97.300781 80.773438 " fill-opacity="1" fill-rule="evenodd"/></g><path fill="#ffffff" d="M 207.921875 179.585938 C 216.136719 183.277344 230.09375 161.328125 233.941406 141.097656 C 238.726562 115.929688 234.988281 93.460938 214.167969 78.070312 C 175.84375 49.722656 128.835938 72.25 121.652344 115.671875 C 114.035156 161.691406 157.148438 157.574219 144.152344 188.902344 C 140.183594 198.480469 127.320312 209.796875 122.382812 218.054688 C 115.125 230.183594 118.007812 246.5625 128.574219 252.90625 C 153.824219 268.074219 182.804688 233.296875 185.6875 192.359375 C 188.140625 157.542969 141.925781 143.652344 144.722656 117.398438 C 147.148438 94.714844 167.152344 80.414062 190.226562 86.179688 C 213.308594 91.949219 227.066406 124.871094 214.996094 152.125 C 209.46875 164.621094 199.597656 175.839844 207.921875 179.585938 Z M 207.921875 179.585938 " fill-opacity="1" fill-rule="evenodd"/></svg>