<svg width="500" height="500" viewBox="0 0 375 375" xmlns="http://www.w3.org/2000/svg"><defs><clipPath><path d="M45.402 16.855h284.25v341.25H45.402Zm0 0"/></clipPath></defs><path d="M248.996 122.656h-123c-3.957 0-6.277 5.39-3.754 9.008 12.219 18.09 28.738 31.059 47.508 36.11 6.758 1.843 11.469 9.144 11.059 17.269l-2.801 60.68c-.34 7.851-6.824 13.992-14.676 13.992h-47.437c-1.844 0-3.48 1.23-4.301 3.14a134.7 134.7 0 0 0-8.942 30.442c-.613 3.48 1.641 6.758 4.711 6.758H267.7c3.07 0 5.324-3.278 4.711-6.758-1.844-10.785-4.918-21.024-8.945-30.442-.817-1.91-2.457-3.14-4.297-3.14h-47.371c-7.852 0-14.266-6.14-14.676-13.992l-2.8-60.68c-.407-8.125 4.3-15.426 11.058-17.27 18.773-5.12 35.289-18.09 47.508-36.109 2.39-3.684.136-9.008-3.89-9.008m0 0"/><g clip-path="url(#a)"><path d="M295.41 63.887h28.258c3.21 0 5.734-3.004 5.734-6.692V22.66a5.797 5.797 0 0 0-5.8-5.805H51.324a5.797 5.797 0 0 0-5.8 5.805v34.535c0 3.688 2.593 6.692 5.73 6.692h28.262c2.113 56.722 31.261 105.593 73.168 123.613-41.907 18.02-70.985 66.89-73.168 123.613H51.324c-3.207 0-5.734 3.004-5.734 6.688v34.539c0 3.207 2.594 5.8 5.8 5.8h272.278a5.797 5.797 0 0 0 5.805-5.8V317.8c0-3.683-2.594-6.687-5.735-6.687H295.48C293.363 254.391 264.22 205.52 222.31 187.5c41.84-18.02 70.984-66.89 73.101-123.613M210.5 177.809c-3.824 1.226-6.348 5.117-6.348 9.691 0 4.64 2.594 8.531 6.348 9.691 41.566 13.106 71.121 59.383 73.375 113.922H91.117c2.254-54.539 31.809-100.816 73.375-113.922 3.824-1.226 6.352-5.117 6.352-9.691 0-4.64-2.598-8.531-6.352-9.691-41.566-13.106-71.12-59.387-73.375-113.922h192.758c-2.254 54.535-31.809 100.816-73.375 113.922m0 0"/></g></svg>